# xmcd
#
# Track frame offsets: 
#        150
#        13182
#        26163
#        49525
#        65732
#        79878
#        106722
#        130574
#        144854
#        169020
#
# Disc length: 2414 seconds
#
# Revision: 0
# Processed by: cddbd v1.5.2PL0 Copyright (c) Steve Scherf et al.
# Submitted via: ExactAudioCopy v1.0b3
#
DISCID=7a096c0a
DTITLE=Spanky Wilson - Let It Be
DYEAR=1970
DGENRE=Soul
TTITLE0=Let It Be
TTITLE1=Bridge Over Troubled Waters
TTITLE2=Love, Or Let Me Be Lonely
TTITLE3=Loveland
TTITLE4=Fancy
TTITLE5=Alfie
TTITLE6=Gloomy Sunday
TTITLE7=Perhaps
TTITLE8=Foolish
TTITLE9=Would You Love Me
EXTD=
EXTT0=
EXTT1=
EXTT2=
EXTT3=
EXTT4=
EXTT5=
EXTT6=
EXTT7=
EXTT8=
EXTT9=
PLAYORDER=
